<svg width="639" height="299" viewBox="0 0 639 299" fill="none" xmlns="http://www.w3.org/2000/svg">
<line x1="21" y1="0.5" x2="619" y2="0.5" stroke="white"/>
<line x1="1.5" y1="20" x2="1.5" y2="277" stroke="white"/>
<line x1="637.5" y1="21" x2="637.5" y2="278" stroke="white"/>
<path d="M2 20.5C16.7498 20.1859 21.2058 15.034 21.5 0" stroke="white"/>
<path d="M638 21.5C623.25 21.1859 618.794 16.034 618.5 1" stroke="white"/>
<line x1="30" y1="11.5" x2="609" y2="11.5" stroke="white"/>
<line x1="11.5" y1="30" x2="11.5" y2="268" stroke="white"/>
<line x1="626.5" y1="31" x2="626.5" y2="269" stroke="white"/>
<line x1="21" y1="297.5" x2="618" y2="297.5" stroke="white"/>
<path d="M1 277.5C15.7498 277.814 20.2058 282.966 20.5 298" stroke="white"/>
<path d="M638 279C622.872 279.291 618.302 284.066 618 298" stroke="white"/>
<path d="M29 287H608" stroke="white"/>
<path d="M11 269C24.6152 269.276 28.7284 273.799 29 287" stroke="white"/>
<path d="M627 270C612.628 270.26 608.287 274.533 608 287" stroke="white"/>
<path d="M11 30C25.3716 29.7089 29.7133 24.934 30 11" stroke="white"/>
<path d="M627 31C613.385 30.7089 609.272 25.934 609 12" stroke="white"/>
</svg>
